<?xml version="1.0" encoding="UTF-8"?>
<svg id="Capa_2" data-name="Capa 2" xmlns="http://www.w3.org/2000/svg" viewBox="0 0 145.65 113.85">
  <defs>
    <style>
      .cls-1 {
        fill: #ffa100;
      }

      .cls-2 {
        fill: #fff;
      }
    </style>
  </defs>
  <g id="Capa_1-2" data-name="Capa 1">
    <g>
      <path class="cls-2" d="M37.11,14.26c.96-.25,1.94-.5,2.92-.75.98-.25,1.98-.46,3-.64,1.02-.18,2.01-.27,2.98-.27,2.07,0,3.85.46,5.34,1.39,1.48.93,2.59,2.19,3.32,3.78.73,1.59,1.1,3.32,1.1,5.17,0,2.9-.53,6.21-1.58,9.95-1.06,3.74-2.57,7.53-4.53,11.4-1.97,3.86-4.27,7.51-6.92,10.94-3.61,4.65-7.95,8.39-13,11.23-5.06,2.84-9.7,4.26-13.92,4.26-3.11,0-5.85-.85-8.23-2.55-2.38-1.7-4.24-4.16-5.58-7.4-1.34-3.23-2.01-7.03-2.01-11.4,0-5.86,1.6-11.73,4.8-17.62,3.2-5.88,7.24-11.21,12.12-15.98,4.88-4.77,9.8-8.6,14.77-11.48,4.97-2.88,9.01-4.32,12.12-4.32,2.54,0,4.49.78,5.85,2.33,1.36,1.56,2.63,4.07,3.81,7.53-3.32.11-6.22.51-8.69,1.21-2.47.7-5.02,1.76-7.67,3.19ZM23.6,25.15c-2.5,2.68-5.03,6.14-7.59,10.38-2.56,4.24-4.62,8.39-6.19,12.47-1.57,4.08-2.36,7.19-2.36,9.33,0,5.33,2.48,7.99,7.45,7.99,3.47,0,7.95-2.34,13.43-7.02,5.49-4.68,10.26-10.32,14.32-16.92,4.06-6.6,6.09-12.59,6.09-17.99,0-3.97-1.57-5.95-4.72-5.95-2.43,0-5.4.97-8.9,2.9-3.5,1.93-6.86,4.67-10.08,8.2-1.14,1.29-3.41,4.43-6.81,9.44.64-3.36,2.43-7.63,5.36-12.82Z"/>
      <path class="cls-2" d="M85.16,51.8v3.97c-7.47,9.9-13.55,14.85-18.23,14.85-2.54,0-4.53-1.38-5.98-4.16-1.45-2.77-2.17-6.41-2.17-10.91,0-3.65.86-7.98,2.57-13,1.72-5.02,4.01-10.12,6.89-15.28,2.88-5.17,5.86-9.67,8.96-13.51,3.09-3.84,5.96-6.53,8.61-8.07,1.07-.64,1.91-.97,2.52-.97.75,0,1.25.33,1.5.99.25.66.38,1.8.38,3.41,0,4.97-2.02,11.07-6.06,18.31-4.04,7.24-9.67,14.63-16.89,22.17-.36,1.86-.54,3.29-.54,4.29,0,2.29.49,4.15,1.47,5.58.98,1.43,2.35,2.14,4.1,2.14.89,0,1.86-.35,2.89-1.05,1.04-.7,2.13-1.56,3.27-2.6,1.14-1.04,3.38-3.09,6.7-6.17ZM69.12,42.15c1.86-1.82,3.65-3.9,5.39-6.22,1.73-2.32,3.37-4.81,4.91-7.45,1.54-2.65,2.74-5.02,3.62-7.13.88-2.11,1.31-3.7,1.31-4.77,0-.82-.29-1.23-.86-1.23-.21,0-.62.2-1.23.59-2.18,1.79-4.63,5.28-7.35,10.48s-4.65,10.45-5.79,15.74Z"/>
      <path class="cls-2" d="M93.26,54.32v1.34c0,2.11.52,3.75,1.55,4.93s2.4,1.77,4.08,1.77,3.57-.41,5.44-1.23c1.88-.82,3.75-1.91,5.6-3.27,1.86-1.36,4.13-3.18,6.81-5.47v3.27c-4.04,4.86-7.83,8.59-11.37,11.18-3.54,2.59-7.13,3.89-10.78,3.89-3.18,0-5.7-1.23-7.56-3.7-1.86-2.47-2.79-5.85-2.79-10.14,0-3.75.88-7.16,2.63-10.22,1.75-3.06,4.61-6.28,8.58-9.68,2.72-2.32,5.42-4.08,8.1-5.26,2.68-1.18,5.08-1.77,7.19-1.77,1.68,0,3.01.38,4,1.15.98.77,1.47,1.92,1.47,3.46,0,2.25-.84,4.5-2.52,6.73-1.68,2.23-4.25,4.45-7.7,6.65-3.45,2.2-7.7,4.32-12.74,6.35ZM93.79,50.84c3.22-1.25,5.97-2.81,8.26-4.67,2.29-1.86,3.98-3.64,5.07-5.34,1.09-1.7,1.64-2.94,1.64-3.73s-.38-1.23-1.13-1.23c-.64,0-1.69.41-3.14,1.23-1.45.82-2.91,1.9-4.4,3.22-1.48,1.32-2.82,2.88-4,4.67-1.18,1.79-1.95,3.74-2.31,5.85Z"/>
      <path class="cls-2" d="M142.38,52.39v3.92c-3.47,4.47-6.7,7.84-9.71,10.11-3,2.27-5.56,3.41-7.67,3.41-2.93,0-5.11-1.54-6.54-4.61-1.43-3.08-2.15-6.44-2.15-10.08,0-1.39.14-2.73.43-4,.29-1.27.62-2.31,1.02-3.14.39-.82,1.13-2.11,2.2-3.86,5.08-7.9,9.72-11.85,13.94-11.85,2.18,0,3.27.84,3.27,2.52,0,1.14-.71,2.93-2.12,5.36-1.41,2.43-2.67,4.17-3.78,5.2-3.11,3-5.14,5.09-6.09,6.27-.95,1.18-1.42,2.52-1.42,4.02,0,1.29.48,2.36,1.45,3.22.96.86,2.22,1.29,3.75,1.29,1.68,0,3.53-.62,5.55-1.85s4.64-3.21,7.86-5.93ZM138.73,28.42c-.89,0-1.74-.34-2.55-1.02-.8-.68-1.21-1.54-1.21-2.57,0-1.57.75-3.32,2.25-5.26,1.5-1.93,3.06-2.9,4.67-2.9,1.07,0,1.97.33,2.68.99.71.66,1.07,1.62,1.07,2.87,0,1.54-.73,3.24-2.2,5.09-1.47,1.86-3.04,2.79-4.72,2.79Z"/>
    </g>
    <g>
      <path class="cls-1" d="M37.76,74.68v12.98h-1.08c-.81-3.39-2.32-5.98-4.53-7.79s-4.71-2.71-7.51-2.71c-2.34,0-4.48.67-6.44,2.02-1.95,1.34-3.38,3.1-4.28,5.28-1.16,2.78-1.74,5.87-1.74,9.28s.42,6.4,1.27,9.16c.85,2.75,2.17,4.83,3.98,6.24,1.8,1.41,4.14,2.11,7.02,2.11,2.36,0,4.52-.51,6.48-1.55,1.96-1.03,4.03-2.81,6.2-5.33v3.23c-2.1,2.19-4.29,3.78-6.56,4.76-2.27.98-4.93,1.48-7.97,1.48-4,0-7.54-.8-10.65-2.4-3.1-1.6-5.5-3.9-7.18-6.91-1.69-3-2.53-6.2-2.53-9.58,0-3.57.93-6.96,2.8-10.16,1.87-3.2,4.39-5.69,7.57-7.46,3.18-1.77,6.55-2.65,10.12-2.65,2.63,0,5.41.57,8.34,1.71,1.69.66,2.77.99,3.23.99.59,0,1.1-.22,1.53-.65.43-.43.71-1.12.84-2.06h1.08Z"/>
      <path class="cls-1" d="M55.88,95.92v10.5c0,2.03.12,3.3.37,3.83.25.52.69.94,1.31,1.26.63.31,1.79.47,3.51.47v1.02h-19.17v-1.02c1.73,0,2.9-.16,3.52-.48.62-.32,1.05-.74,1.3-1.26s.37-1.79.37-3.81v-24.31c0-2.02-.12-3.3-.37-3.83-.25-.52-.69-.94-1.31-1.26-.63-.31-1.79-.47-3.51-.47v-1.02h17.4c4.53,0,7.84.31,9.94.94s3.81,1.78,5.14,3.47c1.33,1.69,1.99,3.66,1.99,5.92,0,2.76-.99,5.05-2.98,6.85-1.27,1.14-3.05,2-5.33,2.57l9,12.68c1.18,1.64,2.02,2.66,2.51,3.07.76.57,1.63.88,2.62.94v1.02h-11.79l-12.07-17.07h-2.46ZM55.88,77.55v16.41h1.57c2.56,0,4.47-.23,5.75-.7s2.27-1.32,3-2.54,1.09-2.82,1.09-4.79c0-2.85-.67-4.96-2-6.33-1.34-1.36-3.48-2.04-6.45-2.04h-2.96Z"/>
      <path class="cls-1" d="M108.66,100.23l10.16-24.69h15.25v1.02h-1.22c-1.1,0-1.99.19-2.65.58-.46.26-.83.69-1.1,1.3-.2.44-.3,1.59-.3,3.45v24.69c0,1.92.1,3.11.3,3.59.2.48.62.9,1.24,1.26.62.36,1.46.54,2.51.54h1.22v1.02h-19.56v-1.02h1.22c1.1,0,1.99-.19,2.65-.58.46-.26.83-.7,1.1-1.33.2-.44.3-1.6.3-3.48v-27.76l-14.36,34.17h-.66l-14.58-33.92v26.38c0,1.84.05,2.97.14,3.4.24.92.76,1.67,1.56,2.25.8.58,2.06.87,3.77.87v1.02h-12.82v-1.02h.39c.83.02,1.6-.12,2.32-.4.72-.29,1.26-.67,1.63-1.15s.65-1.15.86-2.02c.04-.2.05-1.14.05-2.82v-23.7c0-1.9-.1-3.08-.3-3.55-.2-.47-.62-.88-1.24-1.24-.63-.36-1.46-.54-2.51-.54h-1.19v-1.02h15.3l10.52,24.69Z"/>
    </g>
  </g>
</svg>