<?xml version="1.0" encoding="UTF-8"?>
<svg id="Capa_1" data-name="Capa 1" xmlns="http://www.w3.org/2000/svg" viewBox="0 0 20.93 26.54">
  <defs>
    <style>
      .cls-1 {
        fill: #0d1725;
      }
    </style>
  </defs>
  <path class="cls-1" d="M13.92,5.35c.36-.09.73-.19,1.1-.28.37-.09.74-.17,1.13-.24.38-.07.75-.1,1.12-.1.78,0,1.45.17,2,.52.56.35.97.82,1.25,1.42.28.6.41,1.24.41,1.94,0,1.09-.2,2.33-.59,3.73-.4,1.4-.96,2.83-1.7,4.28s-1.6,2.82-2.59,4.1c-1.36,1.74-2.98,3.15-4.88,4.22-1.9,1.07-3.64,1.6-5.22,1.6-1.17,0-2.2-.32-3.09-.96-.89-.64-1.59-1.56-2.09-2.78s-.76-2.64-.76-4.28c0-2.2.6-4.4,1.8-6.61,1.2-2.21,2.72-4.21,4.55-6,1.83-1.79,3.68-3.23,5.55-4.31,1.86-1.08,3.38-1.62,4.55-1.62.95,0,1.68.29,2.19.88s.99,1.53,1.43,2.83c-1.25.04-2.33.19-3.26.45s-1.89.66-2.88,1.2ZM8.85,9.44c-.94,1.01-1.89,2.3-2.85,3.89s-1.73,3.15-2.32,4.68c-.59,1.53-.89,2.7-.89,3.5,0,2,.93,3,2.8,3,1.3,0,2.98-.88,5.04-2.64,2.06-1.76,3.85-3.87,5.37-6.35,1.52-2.48,2.29-4.73,2.29-6.75,0-1.49-.59-2.23-1.77-2.23-.91,0-2.03.36-3.34,1.09-1.32.72-2.58,1.75-3.78,3.08-.43.48-1.28,1.66-2.56,3.54.24-1.26.91-2.86,2.01-4.81Z"/>
</svg>