        <svg id="Capa_1" data-name="Capa 1" xmlns="http://www.w3.org/2000/svg" viewBox="0 0 1063.62 264.37" width="100" height="50">
          <g>
            <path fill="#ffffff" d="M138.7,53.32c3.61-.93,7.25-1.87,10.92-2.81,3.67-.93,7.42-1.73,11.22-2.41,3.81-.67,7.52-1,11.12-1,7.75,0,14.4,1.74,19.94,5.21,5.54,3.48,9.69,8.19,12.43,14.13,2.74,5.95,4.11,12.4,4.11,19.34,0,10.82-1.97,23.22-5.91,37.18-3.94,13.96-9.59,28.16-16.94,42.59-7.35,14.43-15.97,28.06-25.86,40.89-13.5,17.37-29.7,31.37-48.61,41.99-18.91,10.62-36.25,15.93-52.01,15.93-11.63,0-21.88-3.18-30.77-9.52-8.89-6.34-15.83-15.56-20.85-27.66-5.01-12.09-7.52-26.29-7.52-42.59,0-21.91,5.98-43.86,17.94-65.84,11.96-21.98,27.06-41.89,45.3-59.73,18.24-17.84,36.65-32.14,55.22-42.89C137.03,5.38,152.13,0,163.75,0c9.49,0,16.77,2.91,21.85,8.72,5.08,5.81,9.82,15.2,14.23,28.16-12.43.4-23.25,1.9-32.47,4.51-9.22,2.61-18.77,6.58-28.66,11.93ZM88.19,94c-9.35,10.02-18.81,22.95-28.36,38.78-9.55,15.83-17.27,31.37-23.15,46.6-5.88,15.23-8.82,26.86-8.82,34.88,0,19.91,9.29,29.86,27.86,29.86,12.96,0,29.69-8.75,50.21-26.26,20.51-17.5,38.35-38.58,53.52-63.24,15.16-24.65,22.75-47.07,22.75-67.25,0-14.83-5.88-22.25-17.64-22.25-9.09,0-20.18,3.61-33.27,10.82-13.1,7.22-25.66,17.44-37.68,30.67-4.28,4.81-12.76,16.57-25.46,35.28,2.41-12.56,9.09-28.53,20.04-47.9Z"/>
            <path fill="#ffffff" d="M318.29,193.62v14.83c-27.93,37.01-50.64,55.52-68.15,55.52-9.49,0-16.94-5.18-22.35-15.53-5.41-10.35-8.12-23.95-8.12-40.79,0-13.63,3.21-29.83,9.62-48.61,6.41-18.77,15-37.81,25.76-57.12,10.75-19.31,21.91-36.14,33.47-50.51,11.56-14.36,22.28-24.42,32.17-30.17,4.01-2.41,7.15-3.61,9.42-3.61,2.81,0,4.68,1.24,5.61,3.71.93,2.47,1.4,6.71,1.4,12.73,0,18.57-7.55,41.39-22.65,68.45-15.1,27.06-36.15,54.69-63.14,82.88-1.34,6.95-2,12.3-2,16.03,0,8.55,1.83,15.5,5.51,20.85,3.67,5.34,8.79,8.02,15.33,8.02,3.34,0,6.95-1.3,10.82-3.91,3.88-2.61,7.95-5.84,12.23-9.72,4.28-3.88,12.63-11.56,25.05-23.05ZM258.36,157.54c6.95-6.81,13.66-14.56,20.14-23.25,6.48-8.69,12.59-17.97,18.34-27.86,5.74-9.89,10.25-18.77,13.53-26.66,3.27-7.88,4.91-13.83,4.91-17.84,0-3.07-1.07-4.61-3.21-4.61-.8,0-2.34.73-4.61,2.2-8.15,6.68-17.31,19.74-27.46,39.18-10.16,19.44-17.37,39.05-21.65,58.83Z"/>
            <path fill="#ffffff" d="M348.55,203.04v5.01c0,7.89,1.93,14.03,5.81,18.44,3.88,4.41,8.95,6.61,15.23,6.61s13.33-1.53,20.34-4.61c7.02-3.07,14-7.15,20.95-12.23,6.95-5.08,15.43-11.89,25.46-20.44v12.23c-15.1,18.17-29.26,32.1-42.49,41.79s-26.66,14.53-40.29,14.53c-11.9,0-21.32-4.61-28.26-13.83-6.95-9.22-10.42-21.85-10.42-37.88,0-14.03,3.27-26.76,9.82-38.18,6.54-11.42,17.24-23.48,32.07-36.18,10.15-8.69,20.24-15.23,30.27-19.64,10.02-4.41,18.97-6.61,26.86-6.61,6.28,0,11.25,1.44,14.93,4.31,3.67,2.88,5.51,7.18,5.51,12.93,0,8.42-3.14,16.81-9.42,25.15-6.28,8.35-15.87,16.64-28.76,24.85-12.9,8.22-28.76,16.13-47.6,23.75ZM350.56,190.01c12.03-4.68,22.31-10.49,30.87-17.44,8.55-6.95,14.86-13.6,18.94-19.94,4.08-6.34,6.11-10.99,6.11-13.93s-1.4-4.61-4.21-4.61c-2.41,0-6.31,1.54-11.73,4.61-5.41,3.08-10.89,7.08-16.44,12.03-5.55,4.94-10.52,10.76-14.93,17.44-4.41,6.68-7.29,13.96-8.62,21.85Z"/>
            <path fill="#ffffff" d="M532.15,195.82v14.63c-12.96,16.71-25.05,29.3-36.28,37.78-11.22,8.49-20.78,12.73-28.66,12.73-10.96,0-19.11-5.74-24.45-17.24-5.34-11.49-8.02-24.05-8.02-37.68,0-5.21.53-10.19,1.6-14.93,1.07-4.74,2.34-8.65,3.81-11.73,1.47-3.07,4.21-7.88,8.22-14.43,18.97-29.53,36.35-44.3,52.11-44.3,8.15,0,12.23,3.14,12.23,9.42,0,4.28-2.64,10.96-7.92,20.04-5.28,9.09-9.99,15.57-14.13,19.44-11.63,11.22-19.21,19.04-22.75,23.45-3.54,4.41-5.31,9.42-5.31,15.03,0,4.81,1.8,8.82,5.41,12.03,3.61,3.21,8.28,4.81,14.03,4.81,6.28,0,13.2-2.3,20.74-6.91,7.55-4.61,17.34-11.99,29.36-22.15ZM518.52,106.23c-3.34,0-6.51-1.27-9.52-3.81-3.01-2.54-4.51-5.74-4.51-9.62,0-5.88,2.81-12.43,8.42-19.64s11.42-10.82,17.44-10.82c4.01,0,7.35,1.24,10.02,3.71,2.67,2.47,4.01,6.05,4.01,10.72,0,5.75-2.74,12.1-8.22,19.04-5.48,6.95-11.36,10.42-17.64,10.42Z"/>
          </g>
          <g>
            <path fill="#f8ac1f" d="M718.28,115.6v46.55h-3.86c-2.91-12.15-8.32-21.46-16.24-27.93-7.92-6.47-16.9-9.71-26.94-9.71-8.39,0-16.08,2.41-23.08,7.23s-12.12,11.13-15.35,18.92c-4.16,9.97-6.24,21.06-6.24,33.27s1.52,22.96,4.56,32.83c3.04,9.87,7.79,17.33,14.26,22.38,6.47,5.05,14.86,7.58,25.16,7.58,8.45,0,16.19-1.85,23.22-5.55,7.03-3.7,14.44-10.07,22.23-19.11v11.59c-7.53,7.86-15.37,13.55-23.52,17.08-8.15,3.53-17.68,5.3-28.57,5.3-14.33,0-27.05-2.87-38.18-8.62-11.13-5.75-19.71-14-25.75-24.76-6.04-10.76-9.06-22.22-9.06-34.37,0-12.81,3.35-24.96,10.05-36.44,6.7-11.49,15.75-20.4,27.14-26.74,11.39-6.34,23.49-9.51,36.3-9.51,9.44,0,19.41,2.05,29.91,6.14,6.07,2.38,9.93,3.56,11.59,3.56,2.11,0,3.94-.77,5.5-2.33,1.55-1.55,2.56-4.01,3.02-7.38h3.86Z"/>
            <path fill="#f8ac1f" d="M779.25,191.75v37.63c0,7.26.45,11.83,1.34,13.72s2.46,3.38,4.7,4.51c2.24,1.12,6.44,1.68,12.58,1.68v3.66h-68.73v-3.66c6.21,0,10.41-.58,12.63-1.73s3.76-2.66,4.66-4.51,1.34-6.4,1.34-13.67v-87.15c0-7.26-.45-11.83-1.34-13.72s-2.46-3.38-4.7-4.51c-2.25-1.12-6.44-1.68-12.58-1.68v-3.66h62.39c16.24,0,28.13,1.12,35.65,3.37,7.53,2.25,13.67,6.39,18.42,12.43,4.75,6.04,7.13,13.12,7.13,21.24,0,9.9-3.56,18.09-10.69,24.56-4.56,4.1-10.93,7.16-19.12,9.21l32.29,45.46c4.22,5.88,7.23,9.54,9.01,10.99,2.71,2.05,5.84,3.17,9.41,3.37v3.66h-42.29l-43.28-61.2h-8.81ZM779.25,125.9v58.83h5.64c9.18,0,16.04-.84,20.6-2.52,4.55-1.68,8.14-4.72,10.75-9.11,2.61-4.39,3.91-10.12,3.91-17.18,0-10.23-2.39-17.79-7.18-22.68-4.79-4.88-12.5-7.33-23.13-7.33h-10.6Z"/>
            <path fill="#f8ac1f" d="M972.51,207.2l36.44-88.54h54.67v3.66h-4.36c-3.96,0-7.13.69-9.51,2.08-1.65.92-2.97,2.48-3.96,4.65-.73,1.59-1.09,5.71-1.09,12.38v88.54c0,6.87.36,11.16,1.09,12.87.73,1.72,2.21,3.22,4.46,4.51,2.24,1.29,5.25,1.93,9.01,1.93h4.36v3.66h-70.12v-3.66h4.36c3.96,0,7.13-.69,9.51-2.08,1.65-.92,2.97-2.51,3.96-4.75.72-1.59,1.09-5.74,1.09-12.48v-99.53l-51.5,122.51h-2.38l-52.29-121.62v94.58c0,6.6.16,10.66.5,12.18.86,3.3,2.72,5.99,5.6,8.07,2.87,2.08,7.38,3.12,13.52,3.12v3.66h-45.95v-3.66h1.39c2.97.07,5.74-.41,8.32-1.44,2.58-1.02,4.52-2.39,5.84-4.11,1.32-1.72,2.34-4.13,3.07-7.23.13-.73.2-4.09.2-10.1v-84.97c0-6.8-.36-11.04-1.09-12.73-.73-1.68-2.21-3.17-4.46-4.46-2.25-1.29-5.25-1.93-9.01-1.93h-4.26v-3.66h54.87l37.73,88.54Z"/>
          </g>
        </svg>